<mxfile host="app.diagrams.net" modified="2024-03-11T21:31:36.282Z" agent="Mozilla/5.0 (Macintosh; Intel Mac OS X 10_15_7) AppleWebKit/605.1.15 (KHTML, like Gecko) Version/17.4 Safari/605.1.15" etag="B3H4nYfkpXTWW5tySZq3" version="24.0.1" type="github">
  <diagram name="Страница — 1" id="IHX4o3hmim-yW3k6kt_z">
    <mxGraphModel dx="1242" dy="568" grid="0" gridSize="10" guides="1" tooltips="1" connect="1" arrows="1" fold="1" page="0" pageScale="1" pageWidth="827" pageHeight="1169" math="0" shadow="0">
      <root>
        <mxCell id="0" />
        <mxCell id="1" parent="0" />
        <mxCell id="Cyz9JqdXiU33tqvd7W_i-6" style="edgeStyle=orthogonalEdgeStyle;rounded=0;orthogonalLoop=1;jettySize=auto;html=1;entryX=0;entryY=0.5;entryDx=0;entryDy=0;" edge="1" parent="1" source="Cyz9JqdXiU33tqvd7W_i-1" target="Cyz9JqdXiU33tqvd7W_i-2">
          <mxGeometry relative="1" as="geometry" />
        </mxCell>
        <mxCell id="Cyz9JqdXiU33tqvd7W_i-1" value="Покупатель" style="rounded=1;whiteSpace=wrap;html=1;" vertex="1" parent="1">
          <mxGeometry y="160" width="160" height="80" as="geometry" />
        </mxCell>
        <mxCell id="Cyz9JqdXiU33tqvd7W_i-7" style="edgeStyle=orthogonalEdgeStyle;rounded=0;orthogonalLoop=1;jettySize=auto;html=1;entryX=0;entryY=0.5;entryDx=0;entryDy=0;" edge="1" parent="1" source="Cyz9JqdXiU33tqvd7W_i-2" target="Cyz9JqdXiU33tqvd7W_i-5">
          <mxGeometry relative="1" as="geometry" />
        </mxCell>
        <mxCell id="Cyz9JqdXiU33tqvd7W_i-2" value="1" style="swimlane;rounded=1;" vertex="1" parent="1">
          <mxGeometry x="330" y="160" width="140" height="80" as="geometry" />
        </mxCell>
        <mxCell id="Cyz9JqdXiU33tqvd7W_i-3" value="Заказ товара&lt;div&gt;&amp;nbsp;на сайте&lt;/div&gt;" style="text;html=1;align=center;verticalAlign=middle;resizable=0;points=[];autosize=1;strokeColor=none;fillColor=none;rounded=1;" vertex="1" parent="Cyz9JqdXiU33tqvd7W_i-2">
          <mxGeometry x="20" y="30" width="100" height="40" as="geometry" />
        </mxCell>
        <mxCell id="Cyz9JqdXiU33tqvd7W_i-5" value="Хранилище данных&amp;nbsp;&lt;div&gt;покупателей и заказов&lt;/div&gt;" style="html=1;dashed=0;whiteSpace=wrap;shape=mxgraph.dfd.dataStoreID;align=center;spacingLeft=3;points=[[0,0],[0.5,0],[1,0],[0,0.5],[1,0.5],[0,1],[0.5,1],[1,1]];" vertex="1" parent="1">
          <mxGeometry x="640" y="160" width="210" height="80" as="geometry" />
        </mxCell>
        <mxCell id="Cyz9JqdXiU33tqvd7W_i-8" value="&lt;span style=&quot;caret-color: rgb(0, 0, 0); color: rgb(0, 0, 0); font-family: Helvetica; font-size: 12px; font-style: normal; font-variant-caps: normal; font-weight: 400; letter-spacing: normal; orphans: auto; text-align: center; text-indent: 0px; text-transform: none; white-space: normal; widows: auto; word-spacing: 0px; -webkit-text-stroke-width: 0px; background-color: rgb(251, 251, 251); text-decoration: none; display: inline !important; float: none;&quot;&gt;Данные покупателя&lt;/span&gt;" style="text;whiteSpace=wrap;html=1;" vertex="1" parent="1">
          <mxGeometry x="180" y="170" width="120" height="30" as="geometry" />
        </mxCell>
        <mxCell id="Cyz9JqdXiU33tqvd7W_i-9" value="&lt;span style=&quot;caret-color: rgb(0, 0, 0); color: rgb(0, 0, 0); font-family: Helvetica; font-size: 12px; font-style: normal; font-variant-caps: normal; font-weight: 400; letter-spacing: normal; text-indent: 0px; text-transform: none; white-space: normal; word-spacing: 0px; -webkit-text-stroke-width: 0px; background-color: rgb(251, 251, 251); text-decoration: none; float: none; display: inline !important;&quot;&gt;Данные покупателя и заказ&lt;/span&gt;" style="text;whiteSpace=wrap;html=1;align=center;" vertex="1" parent="1">
          <mxGeometry x="490" y="160" width="120" height="30" as="geometry" />
        </mxCell>
        <mxCell id="Cyz9JqdXiU33tqvd7W_i-10" value="Покупатель" style="rounded=1;whiteSpace=wrap;html=1;" vertex="1" parent="1">
          <mxGeometry x="-89" y="575" width="160" height="80" as="geometry" />
        </mxCell>
        <mxCell id="Cyz9JqdXiU33tqvd7W_i-11" value="1" style="swimlane;rounded=1;" vertex="1" parent="1">
          <mxGeometry x="160" y="575" width="140" height="80" as="geometry" />
        </mxCell>
        <mxCell id="Cyz9JqdXiU33tqvd7W_i-12" value="Ввод персональных&lt;div&gt;данных&lt;/div&gt;" style="text;html=1;align=center;verticalAlign=middle;resizable=0;points=[];autosize=1;strokeColor=none;fillColor=none;rounded=1;" vertex="1" parent="Cyz9JqdXiU33tqvd7W_i-11">
          <mxGeometry x="5" y="30" width="130" height="40" as="geometry" />
        </mxCell>
        <mxCell id="Cyz9JqdXiU33tqvd7W_i-13" value="Данные формы&lt;div&gt;персональных данных&lt;/div&gt;" style="html=1;dashed=0;whiteSpace=wrap;shape=mxgraph.dfd.dataStoreID;align=center;spacingLeft=3;points=[[0,0],[0.5,0],[1,0],[0,0.5],[1,0.5],[0,1],[0.5,1],[1,1]];" vertex="1" parent="1">
          <mxGeometry x="160" y="748" width="210" height="80" as="geometry" />
        </mxCell>
        <mxCell id="Cyz9JqdXiU33tqvd7W_i-14" style="edgeStyle=orthogonalEdgeStyle;rounded=0;orthogonalLoop=1;jettySize=auto;html=1;entryX=-0.037;entryY=0.262;entryDx=0;entryDy=0;entryPerimeter=0;" edge="1" parent="1" source="Cyz9JqdXiU33tqvd7W_i-10" target="Cyz9JqdXiU33tqvd7W_i-12">
          <mxGeometry relative="1" as="geometry" />
        </mxCell>
        <mxCell id="Cyz9JqdXiU33tqvd7W_i-17" style="edgeStyle=orthogonalEdgeStyle;rounded=0;orthogonalLoop=1;jettySize=auto;html=1;" edge="1" parent="1" source="Cyz9JqdXiU33tqvd7W_i-11">
          <mxGeometry relative="1" as="geometry">
            <mxPoint x="230" y="747" as="targetPoint" />
          </mxGeometry>
        </mxCell>
      </root>
    </mxGraphModel>
  </diagram>
</mxfile>
